Patient4_TMGait_0pt7_02_right_47_EMG.mot
version=1
nRows=30
nColumns=33
inDegrees=no
endheader
time	1LAddLong	2LGlutMax	3LGlutMed	4LIliopsoas	5LSemiMemb	6LBicFemLong	7LRecFem	8LVastMed	9LVastLat	10LGasMed	11LTibAnt	12lTibPost	13LPeroneusLong	14LSol	15LExtDigLong	16LFlexDigLong	17RAddLong	18RGlutMax	19RGlutMed	20RIliopsoas	21RSemiMemb	22RBicFemLong	23RRecFem	24RVastMed	25RVastLat	26RGasMed	27RTibAnt	28RTibPost	29RPeroneusLong	30RSol	31RExtDigLong	32RFlexDigLong
54.403	0.011444	-0.070953	-0.010681	0.019073	0.015106	0.05127	-0.27435	0.001526	0.12482	0.036316	0.036163	-0.030212	-0.26855	0.14816	0.46234	0.012665	-0.020142	-0.20294	0.34302	0.027618	-0.40375	0.27588	0.043488	-0.098114	0.017853	0.018158	-0.065918	-0.001526	-0.10376	0.025635	-0.00061	-0.027008
54.404	0.007782	-0.067749	0.012817	0.00061	0.018158	0.043945	-0.23392	-0.002441	0.26489	0.020142	0.039368	-0.023956	-0.17578	0.21225	0.071106	0.000458	-0.06546	-0.14206	0.28564	0.12589	0.16022	0.079803	0.070343	-0.023651	0.001678	0.019989	0.024414	0.002136	-0.3006	-0.040894	-0.003052	-0.027313
54.405	0.00412	-0.036011	-0.010529	0.003815	0.008087	0.044556	-0.084686	-0.013733	0.45044	0.016785	0.075073	-0.030212	-0.30258	0.089417	0.11368	-0.01297	-0.042877	-0.10437	0.23834	0.10941	0.37781	-0.20523	0.084839	-0.090485	-0.003204	0.023651	0.011597	0.001068	-0.27268	-0.028381	0.00351	-0.014954
54.406	0.001526	-0.014038	-0.007629	0.002594	0.019073	0.055542	0.087738	-0.005035	0.31815	0.020142	0.027313	-0.023651	-0.13168	0.15411	-0.2562	0.001526	-0.024414	-0.13672	0.30807	0.063477	0.24612	-0.39673	0.13153	-0.13931	-0.005035	0.024567	0.025177	0.000305	0.024261	-0.010223	0.000305	-0.013885
54.407	-0.004425	-0.027313	-0.020905	-0.001678	0.009308	0.075531	0.21759	-0.002899	0.1648	-0.024109	-0.20996	-0.020599	0.55222	0.2211	-0.21378	-0.030518	-0.005493	-0.13687	0.28656	0.012665	0.002289	-0.3624	0.091095	-0.11032	-0.007324	0.021973	0.054932	-0.001526	0.50964	-0.009155	-0.001221	-0.016174
54.408	-0.006866	0.033569	-0.031433	0.01297	0.010529	0.070648	0.23651	0.008087	0.030212	0.008698	-0.11932	-0.016022	0.4184	0.19745	-0.042419	-0.025482	0.029907	-0.12543	0.15182	0.013275	-0.11444	-0.13718	0.10193	-0.11368	0.015869	0.016632	0.026245	-0.003662	0.18616	-0.043793	0.001373	-0.037537
54.409	-0.003662	0.038757	-0.021362	-0.014801	0.014954	0.048981	0.19486	0.009918	-0.089722	0.057983	0.09201	-0.027618	0.077972	0.1062	0.02594	-0.019836	0.033264	-0.11688	0.15121	0.041199	-0.060425	-0.061798	0.14557	-0.12451	0.000458	0.014648	0.070953	-0.006409	-0.64224	-0.10925	-0.007324	-0.043793
54.41	0.000916	0.016632	-0.015869	0.006714	0.015106	0.031281	0.13397	-0.004425	-0.009003	0.054169	0.22675	-0.022125	0.23712	0.065765	-0.081177	-0.012207	-0.001373	-0.070801	0.071259	0.080566	0.14389	0.383	0.10376	-0.048065	0.018616	0.013123	0.029449	-0.001678	-0.029449	-0.08667	-0.002136	-0.055389
54.411	0.00946	-0.008392	0.029602	0.006714	0.014343	0.006866	0.004272	-0.024414	0.046997	0.023956	0.22415	-0.019073	0.59204	0.02594	-0.18997	-0.004578	-0.008545	-0.05722	-0.19638	-0.016937	0.14465	0.31967	-0.016479	0.058289	0.05127	0.01297	0.14389	-0.009003	0.3064	-0.067596	-0.002899	-0.062103
54.412	0.009918	0.016937	0.072632	0.039063	0.023651	0.009766	-0.072174	-0.021667	0.10193	0.019379	0.029449	-0.026245	0.52643	0.083313	-0.14984	-0.007477	-0.0177	0.028381	-0.45624	-0.11597	-0.050964	0.30228	0.006409	0.039063	0.02594	0.003357	0.11856	-0.010681	0.21042	-0.031128	0.001068	-0.073242
54.413	0.002289	0.039978	0.007324	0.025177	0.016937	0.02594	-0.020905	-0.005493	0.13473	-0.040894	0.028839	-0.040741	0.12405	0.1416	-0.15152	0.000458	-0.00412	0.009918	-0.84274	-0.063477	0.12253	0.3157	0.014038	0.058136	0.030212	0.002136	0.11322	-0.000305	0.11749	-0.058899	-0.003662	-0.071869
54.414	0.004578	0.021973	-0.064392	-0.005493	0.018921	0.01358	0.057068	-0.003204	0.15198	-0.043945	0.029144	-0.044861	-0.008698	0.097351	-0.17227	-0.001984	-0.025482	0.084686	-1.194	0.033569	0.008545	0.37231	0.043793	0.057373	0.031128	0.005951	0.25116	-0.002289	-0.033875	-0.058441	-0.003052	-0.059052
54.415	-0.002747	-0.00946	-0.10147	-0.002594	0.017242	0.034943	0.1265	0.003052	0.11353	-0.035553	0.075073	-0.046539	-0.25757	-0.060272	-0.005188	-0.005188	-0.045624	0.036926	-0.64789	0.14786	-0.14771	0.18219	0.03418	0.014343	0.026703	0.001526	0.17029	-0.003967	0.025635	-0.075378	-0.00061	-0.067596
54.416	-0.000916	0.013275	-0.038757	0.005646	0.016174	0.036621	0.10483	0.009918	0.10574	0	0.096741	-0.063019	0.1889	0.028839	0.20142	-0.006256	-0.037079	-0.079346	0.39856	0.13733	-0.088043	-0.042725	0.094757	-0.051575	0.01358	-0.004272	0.057373	-0.006866	0.029907	-0.011139	-0.004425	-0.081787
54.417	0.003052	0.058136	0.010986	0.035706	0.014496	0.036316	0.10681	-0.000916	0.11795	0.085144	0.036926	-0.06012	-0.41061	-0.093231	0.1944	-0.005493	-0.040131	-0.16251	1.577	-0.096283	0.012512	-0.16937	0.10941	-0.13245	-0.005798	0.001221	-0.002747	-0.003815	0.12497	0.008392	-0.002747	-0.094604
54.418	0.002289	0.046539	-0.028076	0.047455	0.01236	-0.011749	0.1561	0.001221	0.075073	0.11963	-0.08316	-0.072479	-0.65948	-0.031586	0.092621	0.001068	-0.031281	-0.1442	1.8825	-0.26215	0.068054	-0.1741	0.13275	-0.099487	0.000458	0.003662	-0.29037	0.000763	0.00473	-0.066528	-0.004425	-0.076447
54.419	0.005493	0.020905	-0.033569	0.043335	0.018005	-0.017242	0.18326	0.006409	0.045471	0.10727	-0.088043	-0.075684	-0.22949	0.018463	0.061493	-0.005035	-0.008698	-0.091095	1.0849	-0.1651	0.13138	-0.20752	0.036621	-0.12711	0.011292	0.013885	-0.15472	-0.007477	-0.23422	-0.040131	-0.00946	-0.16174
54.42	0.000153	0.018921	0.058594	-0.026855	0.019531	0.04776	0.19974	0.006104	0.040436	0.077515	-0.086365	-0.079651	0.015869	-0.13077	-0.04776	0.002747	0.011902	-0.045471	0.36392	-0.018158	0.061951	-0.22736	0.084534	-0.13473	-0.002899	0.000916	0.22217	-0.001221	-0.29343	-0.06012	-0.003357	-0.14191
54.421	-0.005188	-0.005341	0.028076	-0.051575	0.019836	0.049744	0.15182	0.013733	0.040436	-0.039215	-0.094757	-0.076447	0.1294	-0.19196	0.063171	-0.006561	-0.024414	-0.059662	0.14496	0.15411	-0.38803	-0.12466	-0.003204	-0.17212	0.007019	-0.002441	0.15167	-0.001221	-0.45761	-0.1091	-0.003357	-0.12512
54.422	0.005951	0.002136	0.11261	-0.045624	0.022888	0.027771	0.048523	0.005341	0.10941	-0.12024	-0.077667	-0.07843	-0.18021	-0.12344	0.11856	-0.010223	-0.036163	-0.011597	0.15106	0.30838	-0.42267	0.006409	0.050507	-0.16678	-0.007629	-0.00824	0.18631	-0.002441	-0.0914	-0.082703	-0.003815	-0.13123
54.423	0.006714	0.019073	0.1535	0.014343	0.026703	0.015106	0.031433	-0.007172	0.16541	-0.13718	-0.048828	-0.080261	-0.37262	-0.096893	0.094604	-0.016785	-0.063934	0.003204	0.3772	0.26382	-0.19196	0.18372	0.085602	-0.099487	0.015564	-0.009613	0.29633	-0.000763	0.028381	-0.067596	0.001984	-0.16327
54.424	0.001373	0.025787	0.10986	-0.006714	0.014343	0.06424	0.11353	0.006104	0.098267	-0.06012	-0.045319	-0.078583	-0.33844	-0.17303	-0.021667	-0.004578	-0.086823	-0.002136	0.55893	0.24536	0.23239	0.21957	0.027924	-0.032501	0.010681	0.007477	0.19959	-0.000916	0.23895	-0.16907	0	-0.1886
54.425	-0.004578	0.035553	0.018463	-0.005493	0.004883	0.10223	0.13367	0.008087	0.058899	-0.017853	-0.031128	-0.082855	-0.17303	-0.14923	-0.020752	0.010376	-0.11856	-0.041351	0.56015	0.078278	0.2034	0.17471	0.035248	0.062714	0.007019	0.012665	0.029144	0.001984	0.35355	-0.2565	-0.001221	-0.20599
54.426	0	0.021667	-0.000458	0.003204	0.007935	0.12421	0.11261	0.007629	0.063934	-0.030365	-0.016479	-0.078583	-0.17929	-0.030518	0.009613	0.010071	-0.099945	-0.031433	0.42313	-0.10025	0.103	0.11063	0.044098	0.071411	0.013885	0.012207	0.2301	0.000305	0.30563	-0.19501	0.001221	-0.18372
54.427	0.002747	-0.022888	-0.003662	0.016937	0.013733	0.12222	0.15595	0.001068	0.0737	-0.012054	-0.017853	-0.062561	-0.15457	0.006866	0.007477	0.009308	-0.037689	-0.0177	0.26077	-0.13855	-0.05188	0.041962	0.063477	0.11978	0.003967	0.010986	0.58456	-0.000153	0.29892	-0.1622	-0.000763	-0.13672
54.428	-0.003662	-0.016479	0.045471	0.030823	0.020752	0.13947	0.14481	0.003357	0.024719	-0.026703	0.028076	-0.073547	0.10056	-0.033569	0.00824	-0.035706	-0.012054	-0.079956	0.23972	-0.000763	-0.17334	0.059357	0.049133	0.10452	0.011597	0.009918	0.066681	-0.000458	0.35767	-0.14358	-0.007019	-0.0914
54.429	0.003815	-0.033417	-0.063477	0.019836	0.019531	0.14786	0.058899	0.001526	-0.021057	0.00061	0.079651	-0.077972	0.26032	-0.096436	-0.015259	-0.023804	0.025024	-0.11597	0.03479	0.070801	-0.26566	0.077972	0.094452	0.033875	0.003052	0.008087	-0.73715	-0.005798	0.0737	-0.16129	-0.004883	-0.051117
54.43	0.007629	-0.009918	-0.070496	0.020447	0.013428	-0.064545	0.031128	0.006256	-0.039673	-0.000458	0.11261	-0.081635	0.46921	-0.084076	0.10849	-0.008087	0.046539	-0.12405	-0.061646	0.093536	-0.36011	0.072174	0.044098	-0.081635	0.018158	0.004883	-0.70984	-0.001373	0.22522	-0.055695	-0.000916	-0.012665
54.431	-0.002747	0.00885	-0.059967	0.009308	0.028534	-0.29022	-0.012512	0.015717	-0.036621	-0.045319	0.090332	-0.079193	0.57678	0.075226	0.053253	-0.003662	0.028839	-0.13977	-0.033569	0.011292	-0.3508	0.12528	0.006866	0.033112	0.051422	0.002136	-0.44739	-0.005798	0.25101	0.006866	-0.002441	0.015564
54.432	0.019836	-0.016022	-0.041504	-0.001526	0.032196	-0.17929	-0.057526	0.013733	0.028839	-0.003662	-0.012207	-0.080566	0.10223	0.053864	0.43961	-0.002136	0.002594	-0.14481	-0.066223	-0.08728	-0.17883	0.025787	0.014648	0.097198	0.053101	0.001526	-0.49881	-0.00351	-0.031281	0.004272	-0.005493	0.036774
